<?xml version="1.0" encoding="UTF-8" standalone="no"?>
<svg
   xmlns:dc="http://purl.org/dc/elements/1.1/"
   xmlns:cc="http://creativecommons.org/ns#"
   xmlns:rdf="http://www.w3.org/1999/02/22-rdf-syntax-ns#"
   xmlns:svg="http://www.w3.org/2000/svg"
   xmlns="http://www.w3.org/2000/svg"
   xmlns:sodipodi="http://sodipodi.sourceforge.net/DTD/sodipodi-0.dtd"
   xmlns:inkscape="http://www.inkscape.org/namespaces/inkscape"
   version="1.1"
   id="Capa_1"
   x="0px"
   y="0px"
   width="196.10652"
   height="99.369003"
   viewBox="0 0 196.10653 99.369006"
   xml:space="preserve"
   sodipodi:docname="rose.svg"
   inkscape:version="1.0.1 (3bc2e813f5, 2020-09-07)"><metadata
   id="metadata41"><rdf:RDF><cc:Work
       rdf:about=""><dc:format>image/svg+xml</dc:format><dc:type
         rdf:resource="http://purl.org/dc/dcmitype/StillImage" /></cc:Work></rdf:RDF></metadata><defs
   id="defs39" /><sodipodi:namedview
   pagecolor="#ffffff"
   bordercolor="#666666"
   borderopacity="1"
   objecttolerance="10"
   gridtolerance="10"
   guidetolerance="10"
   inkscape:pageopacity="0"
   inkscape:pageshadow="2"
   inkscape:window-width="1342"
   inkscape:window-height="846"
   id="namedview37"
   showgrid="false"
   inkscape:zoom="2.1926806"
   inkscape:cx="68.005293"
   inkscape:cy="64.789246"
   inkscape:window-x="1562"
   inkscape:window-y="101"
   inkscape:window-maximized="0"
   inkscape:current-layer="g4"><inkscape:grid
     type="xygrid"
     id="grid43"
     originx="-0.00069166365"
     originy="-48.366001" /></sodipodi:namedview>
<g
   id="g4"
   transform="translate(-6.9166362e-4,-48.366)">
	<path
   d="m 195.822,123.198 c -1.312,-7.299 -7.937,-12.267 -15.161,-11.855 1.134,-2.963 2.584,-8.511 -0.253,-13.099 -1.197,-1.917 -3.454,-2.9 -5.432,-3.766 -1.54,-0.675 -3.127,-1.36 -3.459,-2.215 -0.237,-0.63 0.026,-1.052 0.754,-1.948 0.58,-0.728 1.571,-1.949 0.723,-3.32 -1.529,-2.468 -6.249,-2.365 -10.326,0.145 -4.281,2.658 -6.328,6.605 -4.746,9.163 0.237,0.379 0.802,1.034 1.968,1.034 0.453,0 0.906,-0.095 1.35,-0.189 0.849,-0.19 1.598,-0.33 2.072,0.2 0.606,0.664 0.527,2.394 0.443,4.071 -0.116,2.162 -0.237,4.608 0.954,6.549 3.645,5.896 11.997,6.191 13.632,6.191 0.016,0 0.248,0 0.264,0 0.138,-0.011 0.27,-0.09 0.401,-0.127 0.137,0.032 0.273,0.127 0.427,0.096 6.418,-1.16 12.582,3.132 13.732,9.561 0.738,4.039 -0.228,8.279 -2.605,11.606 -1.508,2.125 -3.507,3.687 -5.764,4.715 0.021,-0.011 0.042,-0.021 0.073,-0.042 5.016,-3.987 5.849,-11.328 1.856,-16.348 -3.301,-4.124 -9.339,-4.81 -13.463,-1.504 -3.417,2.722 -3.992,7.721 -1.266,11.133 2.263,2.837 6.438,3.312 9.303,1.044 0.311,-0.242 0.458,-0.591 0.484,-0.96 0.254,-0.432 0.438,-0.906 0.438,-1.455 0,-1.641 -1.318,-2.948 -2.953,-2.948 -1.641,0 -2.943,1.308 -2.943,2.948 0,0.363 0.085,0.738 0.211,1.049 -0.923,-0.131 -1.793,-0.585 -2.415,-1.381 -1.798,-2.258 -1.435,-5.559 0.828,-7.341 2.958,-2.362 7.293,-1.878 9.661,1.086 3.063,3.85 2.426,9.492 -1.43,12.551 -4.946,3.939 -10.731,3.238 -16.289,-1.982 -0.237,-0.222 -0.56,-0.301 -0.854,-0.321 -2.668,-2.59 -5.405,-5.959 -8.601,-9.978 -1.456,-1.825 -2.838,-3.786 -4.262,-5.77 0.507,0.101 1.013,0.2 1.514,0.2 1.466,0 2.959,-0.385 4.398,-1.213 3.67,-2.077 4.978,-6.75 2.916,-10.441 -1.735,-3.068 -5.632,-4.166 -8.712,-2.426 -1.244,0.696 -2.151,1.846 -2.547,3.238 -0.391,1.382 -0.216,2.837 0.496,4.092 0.601,1.076 1.582,1.861 2.763,2.173 1.197,0.338 2.421,0.169 3.48,-0.422 0.459,-0.264 0.612,-0.749 0.575,-1.233 0.068,-0.127 0.132,-0.285 0.152,-0.433 0.148,-0.991 -0.532,-1.909 -1.529,-2.046 -0.965,-0.148 -1.866,0.517 -2.035,1.466 -0.443,-0.138 -0.822,-0.422 -1.05,-0.823 -0.353,-0.622 -0.442,-1.35 -0.258,-2.035 0.195,-0.707 0.644,-1.266 1.271,-1.624 1.767,-1.008 4.034,-0.369 5.042,1.413 1.334,2.367 0.49,5.421 -1.894,6.761 -4.034,2.278 -7.177,-0.411 -8.796,-2.415 -6.798,-9.155 -14.581,-17.395 -28.123,-17.395 -0.032,0 -0.069,0 -0.111,0 -0.659,0 -1.281,0.134 -1.93,0.189 1.134,-1.695 1.729,-3.786 1.461,-5.978 -0.733,-5.909 -6.144,-10.136 -12.05,-9.418 -0.085,0.01 -0.153,0.055 -0.232,0.065 2.916,-2.813 4.772,-6.826 4.772,-11.288 v -5.02 c 0,-0.454 -0.227,-0.876 -0.606,-1.118 -0.374,-0.264 -0.854,-0.298 -1.266,-0.113 C 110.746,64 97.841,69.379 90.024,64 c -0.617,-0.419 -1.458,-0.264 -1.88,0.335 -0.422,0.611 -0.264,1.463 0.345,1.891 7.193,4.936 17.384,2.322 21.561,0.907 v 3.066 c 0,7.006 -5.376,12.701 -11.992,12.701 -6.616,0 -11.995,-5.695 -11.995,-12.701 V 57.1 c 0,-2.911 5.152,-6.033 12.825,-6.033 5.962,0 10.112,2.447 10.112,4.651 0,1.242 -4.831,3.974 -9.999,3.974 -4.49,0 -7.586,-1.184 -7.771,-1.814 0.029,-0.599 2.323,-2.813 7.275,-2.603 2.247,0.114 4.066,0.738 4.87,1.68 0.488,0.562 1.346,0.609 1.912,0.134 0.562,-0.496 0.628,-1.35 0.129,-1.911 -1.32,-1.529 -3.726,-2.447 -6.781,-2.603 -3.552,-0.138 -6.863,0.81 -8.759,2.613 -0.878,0.841 -1.35,1.772 -1.35,2.689 0,4.385 9.402,4.514 10.471,4.514 5.055,0 12.698,-2.658 12.698,-6.674 0,-4.126 -5.624,-7.351 -12.812,-7.351 -8.849,0 -15.525,3.754 -15.525,8.733 v 13.099 c 0,4.514 1.896,8.533 4.857,11.362 -0.113,-0.026 -0.206,-0.058 -0.319,-0.079 -5.92,-0.736 -11.325,3.493 -12.053,9.416 -0.261,2.167 0.316,4.235 1.424,5.946 -0.635,-0.058 -1.247,-0.198 -1.896,-0.198 -0.037,0 -0.069,0 -0.108,0 -13.531,0 -21.312,8.221 -28.11,17.376 -1.617,1.993 -4.754,4.703 -8.804,2.426 -2.375,-1.34 -3.228,-4.383 -1.896,-6.761 0.999,-1.772 3.251,-2.405 5.044,-1.403 0.622,0.332 1.07,0.918 1.266,1.614 0.192,0.686 0.105,1.413 -0.25,2.035 -0.227,0.411 -0.62,0.686 -1.057,0.833 -0.169,-0.976 -1.071,-1.64 -2.036,-1.477 -0.999,0.148 -1.679,1.065 -1.529,2.047 0.021,0.158 0.098,0.306 0.153,0.432 -0.024,0.496 0.124,0.992 0.583,1.245 1.052,0.574 2.284,0.759 3.473,0.416 1.181,-0.332 2.165,-1.091 2.763,-2.167 0.707,-1.255 0.886,-2.711 0.499,-4.092 -0.39,-1.398 -1.292,-2.559 -2.544,-3.254 -3.066,-1.73 -6.982,-0.644 -8.714,2.436 -2.059,3.691 -0.751,8.354 2.921,10.441 1.439,0.802 2.927,1.219 4.39,1.219 0.511,0 1.015,-0.116 1.521,-0.211 -1.426,1.993 -2.813,3.949 -4.261,5.779 -3.185,4.014 -5.911,7.356 -8.569,9.957 -0.313,0.01 -0.633,0.095 -0.886,0.326 -5.566,5.221 -11.351,5.928 -16.292,1.983 -3.85,-3.059 -4.493,-8.69 -1.43,-12.551 2.376,-2.964 6.706,-3.449 9.672,-1.087 2.257,1.793 2.629,5.084 0.836,7.341 -0.628,0.791 -1.5,1.234 -2.426,1.382 0.132,-0.327 0.216,-0.686 0.216,-1.055 0,-1.635 -1.311,-2.942 -2.942,-2.942 -1.635,0 -2.953,1.308 -2.953,2.942 0,0.554 0.185,1.018 0.438,1.461 0.021,0.363 0.172,0.717 0.485,0.959 2.853,2.289 7.027,1.804 9.294,-1.038 2.721,-3.423 2.154,-8.433 -1.263,-11.138 -4.126,-3.28 -10.159,-2.595 -13.463,1.529 -3.987,5.01 -3.153,12.34 1.861,16.326 0.024,0.021 0.045,0.032 0.066,0.043 -2.257,-1.034 -4.256,-2.595 -5.762,-4.715 -2.386,-3.333 -3.343,-7.572 -2.613,-11.612 1.15,-6.412 7.343,-10.684 13.732,-9.556 0.156,0.032 0.285,-0.068 0.438,-0.1 0.129,0.053 0.253,0.11 0.398,0.121 0.016,0 0.248,0 0.264,0 1.638,0 9.985,-0.295 13.637,-6.196 1.187,-1.925 1.062,-4.382 0.949,-6.539 -0.087,-1.683 -0.179,-3.407 0.443,-4.082 0.464,-0.509 1.216,-0.379 2.067,-0.189 0.443,0.101 0.896,0.189 1.35,0.189 1.152,0 1.725,-0.653 1.967,-1.044 1.577,-2.562 -0.464,-6.494 -4.751,-9.162 -4.074,-2.511 -8.793,-2.613 -10.325,-0.135 -0.849,1.371 0.134,2.592 0.722,3.319 0.72,0.896 0.984,1.318 0.747,1.951 -0.325,0.852 -1.912,1.537 -3.452,2.212 -1.986,0.865 -4.243,1.848 -5.432,3.765 -2.834,4.588 -1.387,10.136 -0.253,13.1 -7.248,-0.433 -13.851,4.551 -15.164,11.854 -0.854,4.757 0.264,9.734 3.072,13.663 2.739,3.829 6.771,6.328 11.356,7.029 11.507,1.777 18.265,-6.766 26.082,-16.621 0.042,-0.059 0.087,-0.111 0.129,-0.18 h 0.005 c 1.695,-1.883 5.152,-4.625 9.181,-1.956 2.273,1.513 2.9,4.608 1.387,6.86 -1.123,1.683 -3.412,2.136 -5.118,1.018 -0.596,-0.379 -1.005,-1.007 -1.147,-1.697 -0.14,-0.691 0,-1.424 0.396,-2.004 0.308,-0.454 0.783,-0.696 1.284,-0.791 0.153,0.928 0.952,1.613 1.896,1.529 1.004,-0.074 1.73,-0.949 1.648,-1.941 -0.016,-0.221 -0.092,-0.396 -0.179,-0.585 -0.042,-0.364 -0.206,-0.765 -0.551,-0.986 -2.093,-1.392 -4.941,-0.817 -6.344,1.266 -0.794,1.192 -1.081,2.626 -0.794,4.04 0.285,1.413 1.103,2.626 2.3,3.428 1.091,0.717 2.323,1.064 3.538,1.064 2.067,0 4.098,-1.002 5.318,-2.848 2.333,-3.485 1.366,-8.242 -2.144,-10.6 -2.091,-1.392 -4.335,-1.835 -6.544,-1.392 0.309,-0.422 0.638,-0.844 0.939,-1.266 1.118,-1.571 2.246,-3.106 3.396,-4.657 0.029,-0.031 0.066,-0.078 0.093,-0.11 0.005,-0.011 0,-0.021 0.005,-0.031 6.368,-8.522 13.629,-16.073 25.774,-16.073 0.029,0 0.061,0 0.092,0 5.94,0.021 11.319,2.383 15.143,6.665 4.288,4.804 6.302,11.575 5.535,18.584 -0.562,5.136 -3.083,9.756 -7.111,12.983 -3.721,2.995 -8.327,4.377 -13.052,4.16 -2.864,-0.496 -5.163,-1.814 -6.637,-3.892 -1.772,-2.5 -2.35,-5.985 -1.582,-9.598 0.49,-2.342 1.861,-4.346 3.86,-5.632 1.999,-1.303 4.379,-1.746 6.724,-1.25 1.798,0.391 3.341,1.445 4.34,2.995 0.999,1.529 1.334,3.364 0.952,5.157 -0.282,1.361 -1.081,2.531 -2.247,3.291 -1.179,0.77 -2.581,1.013 -3.942,0.738 -0.933,-0.2 -1.716,-0.749 -2.283,-1.508 1.392,-0.254 2.46,-1.424 2.439,-2.88 -0.021,-1.635 -1.36,-2.921 -2.99,-2.9 -1.255,0.021 -2.296,0.812 -2.705,1.92 -0.029,0.084 -0.103,0.105 -0.113,0.169 -0.034,0.168 0.016,0.326 -0.005,0.495 -0.019,0.127 -0.077,0.253 -0.077,0.391 0,0.105 0.053,0.2 0.063,0.306 -0.037,1.329 0.2,2.637 0.936,3.775 0.965,1.487 2.452,2.5 4.179,2.869 2.062,0.443 4.195,0.042 5.978,-1.118 1.771,-1.149 2.982,-2.932 3.406,-4.988 0.535,-2.489 0.061,-5.058 -1.329,-7.193 -1.392,-2.141 -3.536,-3.617 -6.046,-4.166 -3.045,-0.644 -6.151,-0.063 -8.754,1.624 -2.602,1.698 -4.39,4.314 -5.033,7.341 -0.783,3.671 -0.309,7.257 1.173,10.167 -0.59,-0.537 -1.173,-1.086 -1.685,-1.708 -2.544,-3.175 -3.704,-7.141 -3.262,-11.18 0.712,-6.519 6.576,-11.175 13.115,-10.531 0.686,0.132 1.405,-0.454 1.484,-1.197 0.082,-0.759 -0.453,-1.413 -1.197,-1.492 -7.96,-0.865 -15.211,4.936 -16.086,12.936 -0.525,4.757 0.841,9.429 3.839,13.168 2.998,3.729 7.262,6.064 12.016,6.581 0.485,0.068 0.97,0.079 1.458,0.101 0.068,0.011 0.129,0.031 0.198,0.042 0.061,0.011 0.113,0.011 0.174,0.011 0.026,0 0.047,-0.021 0.082,-0.032 0.172,0.011 0.346,0.032 0.522,0.032 5.002,0 9.813,-1.677 13.766,-4.852 2.671,-2.136 4.675,-4.862 6.085,-7.89 v 14.534 c 0,0.749 0.604,1.35 1.35,1.35 0.744,0 1.35,-0.601 1.35,-1.35 v -14.534 c 1.408,3.027 3.412,5.738 6.08,7.89 3.95,3.175 8.77,4.852 13.77,4.852 0.168,0 0.337,-0.021 0.521,-0.032 0.026,0.011 0.048,0.032 0.085,0.032 0.062,0 0.11,0 0.168,-0.011 0.074,-0.011 0.132,-0.031 0.201,-0.042 0.484,-0.021 0.976,-0.032 1.46,-0.101 4.757,-0.517 9.018,-2.832 12.019,-6.581 2.995,-3.729 4.366,-8.411 3.839,-13.168 -0.875,-7.989 -8.11,-13.731 -16.084,-12.936 -0.743,0.101 -1.276,0.759 -1.202,1.492 0.079,0.738 0.812,1.34 1.487,1.197 6.523,-0.654 12.397,4.013 13.115,10.531 0.442,4.039 -0.712,8.005 -3.26,11.18 -0.517,0.622 -1.091,1.181 -1.688,1.708 1.482,-2.91 1.957,-6.496 1.171,-10.167 -0.638,-3.032 -2.426,-5.643 -5.03,-7.341 -2.601,-1.677 -5.732,-2.277 -8.754,-1.624 -2.505,0.549 -4.651,2.015 -6.049,4.166 -1.387,2.136 -1.861,4.704 -1.329,7.183 0.433,2.067 1.646,3.85 3.412,4.999 1.777,1.16 3.913,1.571 5.975,1.118 1.729,-0.369 3.217,-1.382 4.177,-2.869 0.743,-1.139 0.98,-2.446 0.938,-3.775 0.011,-0.105 0.063,-0.2 0.063,-0.306 0,-0.138 -0.059,-0.264 -0.079,-0.391 -0.021,-0.169 0.031,-0.327 -0.006,-0.495 -0.016,-0.074 -0.095,-0.101 -0.115,-0.169 -0.412,-1.107 -1.456,-1.909 -2.706,-1.92 -1.629,-0.021 -2.969,1.266 -2.989,2.9 -0.021,1.466 1.044,2.626 2.436,2.88 -0.563,0.77 -1.35,1.308 -2.283,1.508 -1.365,0.274 -2.773,0.031 -3.939,-0.738 -1.165,-0.775 -1.961,-1.93 -2.246,-3.301 -0.385,-1.783 -0.042,-3.618 0.949,-5.147 1.002,-1.55 2.547,-2.595 4.346,-2.995 2.341,-0.496 4.725,-0.042 6.724,1.25 1.993,1.286 3.375,3.29 3.859,5.632 0.771,3.612 0.19,7.098 -1.582,9.598 -1.471,2.077 -3.786,3.396 -6.645,3.892 -4.703,0.211 -9.317,-1.182 -13.033,-4.16 -4.028,-3.254 -6.555,-7.848 -7.111,-12.983 -0.773,-7.024 1.247,-13.796 5.535,-18.584 3.82,-4.282 9.199,-6.645 15.143,-6.665 0.026,0 0.058,0 0.095,0 12.15,0 19.411,7.562 25.766,16.073 0.006,0.011 0,0.021 0.006,0.031 0.031,0.032 0.063,0.053 0.09,0.101 1.154,1.545 2.288,3.096 3.406,4.667 0.301,0.422 0.628,0.844 0.938,1.276 -2.215,-0.454 -4.467,-0.011 -6.55,1.381 -3.512,2.357 -4.472,7.099 -2.141,10.6 1.229,1.861 3.259,2.848 5.321,2.848 1.223,0 2.452,-0.348 3.543,-1.075 1.197,-0.786 2.01,-2.004 2.3,-3.417 0.284,-1.414 0,-2.848 -0.791,-4.04 -1.408,-2.099 -4.251,-2.657 -6.35,-1.266 -0.343,0.222 -0.506,0.591 -0.548,0.986 -0.09,0.189 -0.158,0.364 -0.18,0.585 -0.09,1.008 0.644,1.883 1.65,1.941 0.944,0.084 1.74,-0.602 1.898,-1.529 0.507,0.089 0.976,0.332 1.281,0.791 0.391,0.58 0.538,1.308 0.391,2.004 -0.137,0.706 -0.549,1.318 -1.139,1.697 -1.709,1.14 -4.003,0.676 -5.121,-1.018 -1.508,-2.257 -0.881,-5.337 1.387,-6.86 4.029,-2.669 7.483,0.095 9.182,1.956 h 0.005 c 0.048,0.068 0.09,0.121 0.127,0.18 7.815,9.855 14.56,18.389 26.082,16.621 4.583,-0.701 8.617,-3.2 11.359,-7.029 2.832,-3.93 3.955,-8.908 3.09,-13.664 z m -28.814,-16.655 c -0.749,-1.213 -0.649,-3.132 -0.554,-4.988 0.11,-2.246 0.231,-4.535 -1.15,-6.051 -0.77,-0.82 -1.734,-1.242 -2.884,-1.242 -0.644,0 -1.256,0.124 -1.746,0.231 -0.195,0.045 -0.385,0.087 -0.548,0.114 -0.222,-1.073 1.049,-3.375 3.965,-5.189 2.458,-1.517 5.458,-1.991 6.418,-1.242 -0.11,0.147 -0.237,0.319 -0.343,0.443 -0.738,0.917 -1.978,2.468 -1.16,4.59 0.723,1.917 2.848,2.845 4.899,3.731 1.698,0.754 3.465,1.519 4.219,2.721 2.067,3.359 1.112,7.642 0.2,10.226 l -1.872,-3.021 c 1.292,-1.482 1.593,-3.66 0.501,-5.422 -1.287,-2.088 -4.245,-2.789 -6.344,-1.492 -1.034,0.644 -1.777,1.672 -2.057,2.863 -0.279,1.208 -0.079,2.437 0.564,3.486 0.838,1.376 2.31,2.173 3.923,2.184 0.391,0 0.765,-0.063 1.14,-0.158 l 1.824,2.958 c -2.688,-0.343 -6.944,-1.409 -8.995,-4.742 z m 4.409,-1.666 c -0.264,-0.433 -0.354,-0.938 -0.232,-1.435 0.111,-0.495 0.422,-0.917 0.854,-1.181 0.301,-0.19 0.639,-0.296 0.997,-0.296 0.675,0 1.281,0.332 1.629,0.907 0.56,0.896 0.27,2.078 -0.616,2.61 -0.887,0.566 -2.094,0.261 -2.632,-0.605 z M 18.015,99.662 c 0.749,-1.202 2.51,-1.967 4.216,-2.721 2.051,-0.886 4.169,-1.814 4.894,-3.721 0.815,-2.133 -0.422,-3.684 -1.163,-4.601 -0.103,-0.124 -0.237,-0.296 -0.34,-0.443 0.957,-0.759 3.953,-0.274 6.41,1.242 2.921,1.814 4.2,4.126 3.981,5.189 -0.164,-0.032 -0.358,-0.074 -0.551,-0.114 -0.493,-0.107 -1.102,-0.231 -1.746,-0.231 -1.149,0 -2.122,0.422 -2.884,1.242 -1.387,1.505 -1.268,3.805 -1.155,6.051 0.098,1.856 0.195,3.775 -0.551,4.988 -2.057,3.322 -6.312,4.377 -9.007,4.736 l 1.825,-2.953 c 0.374,0.105 0.756,0.168 1.142,0.168 1.608,0 3.077,-0.822 3.918,-2.193 0.648,-1.044 0.849,-2.278 0.569,-3.491 -0.282,-1.202 -1.018,-2.204 -2.059,-2.848 -2.099,-1.297 -5.055,-0.601 -6.344,1.477 -1.091,1.762 -0.788,3.935 0.507,5.421 l -1.872,3.027 c -0.908,-2.573 -1.87,-6.855 0.21,-10.225 z m 4.081,5.838 c -0.896,-0.548 -1.178,-1.729 -0.627,-2.626 0.351,-0.559 0.962,-0.907 1.632,-0.907 0.351,0 0.696,0.116 0.999,0.312 0.43,0.264 0.733,0.686 0.847,1.181 0.119,0.496 0.032,1.019 -0.232,1.461 -0.536,0.831 -1.749,1.138 -2.619,0.579 z M 98.068,85.606 c 0.804,0 1.577,-0.114 2.354,-0.253 -0.804,0.896 -1.49,1.912 -2.036,3.066 -0.113,-0.032 -0.189,-0.113 -0.313,-0.113 -0.129,0 -0.216,0.108 -0.335,0.134 -0.557,-1.181 -1.258,-2.191 -2.078,-3.087 0.789,0.134 1.583,0.253 2.408,0.253 z m -5.529,18.607 c -1.458,-1.625 -3.164,-2.911 -4.973,-4.029 2.257,-1.033 3.99,-3.133 4.324,-5.78 0.406,-3.385 -2.014,-6.476 -5.395,-6.898 -0.448,-0.042 -0.814,0.148 -1.089,0.433 -0.406,0.113 -0.788,0.319 -1.113,0.622 -1.076,1.053 -1.086,2.785 -0.034,3.839 1.049,1.063 2.766,1.097 3.842,0.042 0.221,-0.211 0.361,-0.464 0.49,-0.728 0.459,0.675 0.717,1.485 0.615,2.365 -0.33,2.586 -2.711,4.432 -5.253,4.1 -3.391,-0.4 -5.821,-3.512 -5.41,-6.919 0.548,-4.43 4.566,-7.562 9.044,-7.074 5.708,0.707 8.936,4.923 9.104,11.868 0,0.039 0.021,0.05 0.026,0.071 v 15.068 c -1.056,-2.561 -2.375,-4.955 -4.178,-6.98 z m 11.053,0 c -1.804,2.024 -3.127,4.419 -4.174,6.961 V 96.055 c 0,-0.021 0.026,-0.042 0.026,-0.063 0.168,-6.95 3.398,-11.169 9.097,-11.876 4.472,-0.506 8.506,2.637 9.06,7.059 0.396,3.417 -2.025,6.531 -5.437,6.938 -2.537,0.358 -4.904,-1.517 -5.239,-4.093 -0.104,-0.875 0.155,-1.695 0.614,-2.37 0.124,0.264 0.282,0.53 0.501,0.741 1.065,1.041 2.784,1.021 3.828,-0.056 1.055,-1.042 1.044,-2.776 -0.031,-3.839 -0.322,-0.319 -0.707,-0.496 -1.113,-0.609 -0.279,-0.298 -0.648,-0.498 -1.091,-0.433 -3.373,0.422 -5.799,3.499 -5.393,6.896 0.34,2.671 2.086,4.791 4.374,5.804 -1.823,1.127 -3.548,2.425 -5.022,4.059 z"
   id="path2"
   style="fill:#ffffff" />
</g>
<g
   id="g6"
   transform="translate(-6.9166362e-4,-48.366)">
</g>
<g
   id="g8"
   transform="translate(-6.9166362e-4,-48.366)">
</g>
<g
   id="g10"
   transform="translate(-6.9166362e-4,-48.366)">
</g>
<g
   id="g12"
   transform="translate(-6.9166362e-4,-48.366)">
</g>
<g
   id="g14"
   transform="translate(-6.9166362e-4,-48.366)">
</g>
<g
   id="g16"
   transform="translate(-6.9166362e-4,-48.366)">
</g>
<g
   id="g18"
   transform="translate(-6.9166362e-4,-48.366)">
</g>
<g
   id="g20"
   transform="translate(-6.9166362e-4,-48.366)">
</g>
<g
   id="g22"
   transform="translate(-6.9166362e-4,-48.366)">
</g>
<g
   id="g24"
   transform="translate(-6.9166362e-4,-48.366)">
</g>
<g
   id="g26"
   transform="translate(-6.9166362e-4,-48.366)">
</g>
<g
   id="g28"
   transform="translate(-6.9166362e-4,-48.366)">
</g>
<g
   id="g30"
   transform="translate(-6.9166362e-4,-48.366)">
</g>
<g
   id="g32"
   transform="translate(-6.9166362e-4,-48.366)">
</g>
<g
   id="g34"
   transform="translate(-6.9166362e-4,-48.366)">
</g>
</svg>
